{
	"asset":{
		"generator":"Khronos glTF Blender I/O v4.4.56",
		"version":"2.0"
	},
	"extensionsUsed":[
		"KHR_implicit_shapes",
		"KHR_physics_rigid_bodies"
	],
	"extensions":{
		"KHR_implicit_shapes":{
			"shapes":[
				{
					"type":"box",
					"box":{
						"size":[
							0.029999999329447746,
							0.05999999865889549,
							0.029999999329447746
						]
					}
				},
				{
					"type":"cylinder",
					"cylinder":{
						"height":0.019999999552965164,
						"radiusBottom":0.001500000013038516,
						"radiusTop":0.001500000013038516
					}
				}
			]
		},
		"KHR_physics_rigid_bodies":{
			"physicsMaterials":[
				{
					"staticFriction":0.5,
					"dynamicFriction":0.5,
					"restitution":0
				}
			],
			"collisionFilters":[
				{
					"collisionSystems":[
						"System_0"
					],
					"collideWithSystems":[
						"System_0"
					]
				}
			]
		}
	},
	"scene":0,
	"scenes":[
		{
			"name":"Scene",
			"nodes":[
				2
			]
		}
	],
	"nodes":[
		{
			"extensions":{
				"KHR_physics_rigid_bodies":{
					"motion":{
						"mass":1
					},
					"collider":{
						"geometry":{
							"shape":0
						},
						"physicsMaterial":0,
						"collisionFilter":0
					}
				}
			},
			"mesh":0,
			"name":"Body"
		},
		{
			"extensions":{
				"KHR_physics_rigid_bodies":{
					"motion":{
						"mass":1
					},
					"collider":{
						"geometry":{
							"shape":1
						},
						"physicsMaterial":0,
						"collisionFilter":0
					}
				}
			},
			"mesh":1,
			"name":"Shaft",
			"translation":[
				0,
				0.029999999329447746,
				0
			]
		},
		{
			"children":[
				0,
				1
			],
			"name":"Motor",
			"scale":[
				100,
				100,
				100
			]
		}
	],
	"materials":[
		{
			"doubleSided":true,
			"name":"mat_0.001",
			"pbrMetallicRoughness":{
				"baseColorFactor":[
					0.16826939582824707,
					0.19120168685913086,
					0.2158605307340622,
					1
				]
			}
		}
	],
	"meshes":[
		{
			"name":"Body.001",
			"primitives":[
				{
					"attributes":{
						"POSITION":0,
						"NORMAL":1
					},
					"indices":2,
					"material":0
				}
			]
		},
		{
			"name":"Shaft.001",
			"primitives":[
				{
					"attributes":{
						"POSITION":3,
						"NORMAL":4
					},
					"indices":5,
					"material":0
				}
			]
		}
	],
	"accessors":[
		{
			"bufferView":0,
			"componentType":5126,
			"count":24,
			"max":[
				0.014999999664723873,
				0.029999999329447746,
				0.014999999664723873
			],
			"min":[
				-0.014999999664723873,
				0,
				-0.014999999664723873
			],
			"type":"VEC3"
		},
		{
			"bufferView":1,
			"componentType":5126,
			"count":24,
			"type":"VEC3"
		},
		{
			"bufferView":2,
			"componentType":5123,
			"count":36,
			"type":"SCALAR"
		},
		{
			"bufferView":3,
			"componentType":5126,
			"count":106,
			"max":[
				0.001500000013038516,
				0.009999999776482582,
				0.0014890632592141628
			],
			"min":[
				-0.001500000013038516,
				0,
				-0.0014890632592141628
			],
			"type":"VEC3"
		},
		{
			"bufferView":4,
			"componentType":5126,
			"count":106,
			"type":"VEC3"
		},
		{
			"bufferView":5,
			"componentType":5123,
			"count":300,
			"type":"SCALAR"
		}
	],
	"bufferViews":[
		{
			"buffer":0,
			"byteLength":288,
			"byteOffset":0,
			"target":34962
		},
		{
			"buffer":0,
			"byteLength":288,
			"byteOffset":288,
			"target":34962
		},
		{
			"buffer":0,
			"byteLength":72,
			"byteOffset":576,
			"target":34963
		},
		{
			"buffer":0,
			"byteLength":1272,
			"byteOffset":648,
			"target":34962
		},
		{
			"buffer":0,
			"byteLength":1272,
			"byteOffset":1920,
			"target":34962
		},
		{
			"buffer":0,
			"byteLength":600,
			"byteOffset":3192,
			"target":34963
		}
	],
	"buffers":[
		{
			"byteLength":3792,
			"uri":"motor_with_physics.bin"
		}
	]
}
