{
  "accessors": [
    {
      "bufferView": 0,
      "count": 24,
      "componentType": 5126,
      "type": "VEC3",
      "min": [
        -1.0,
        -1.0,
        -1.0
      ],
      "max": [
        1.0,
        1.0,
        1.0
      ]
    },
    {
      "bufferView": 1,
      "count": 24,
      "componentType": 5126,
      "type": "VEC3"
    },
    {
      "bufferView": 2,
      "count": 36,
      "componentType": 5123,
      "type": "SCALAR"
    }
  ],
  "asset": {
    "version": "2.0"
  },
  "buffers": [
    {
      "byteLength": 648,
      "uri": "buffer0.bin"
    }
  ],
  "bufferViews": [
    {
      "buffer": 0,
      "byteLength": 288,
      "target": 34962
    },
    {
      "buffer": 0,
      "byteLength": 288,
      "byteOffset": 288,
      "target": 34962
    },
    {
      "buffer": 0,
      "byteLength": 72,
      "byteOffset": 576,
      "target": 34963
    }
  ],
  "meshes": [
    {
      "primitives": [
        {
          "attributes": {
            "POSITION": 0,
            "NORMAL": 1
          },
          "indices": 2
        }
      ]
    }
  ],
  "nodes": [
    {
      "mesh": 0
    }
  ],
  "scenes": [
    {
      "nodes": [
        0
      ]
    }
  ]
}